# xmcd CD database file
#
# Track frame offsets:
#	150
#	20707
#	87660
#	120772
#	177587
#	214792
#	244497
#
# Disc length: 3734 seconds
#
# Revision: 1
# Processed by: cddbd v1.5.1PL0 Copyright (c) Steve Scherf et al.
# Submitted via: CD2WAV32(EN) R3.19
#
DISCID=610e9407
DTITLE=?? - Vol.08
DYEAR=1900
DGENRE=
TTITLE0=?????
TTITLE1=????
TTITLE2=??
TTITLE3=?????6?????2??
TTITLE4=???????????? ?1??
TTITLE5=????????????????
TTITLE6=??? ?6? ?????????74?? ?2??
EXTD=
EXTT0=
EXTT1=
EXTT2=
EXTT3=
EXTT4=
EXTT5=
EXTT6=
PLAYORDER=
